<svg width="295" height="97" viewBox="0 0 295 97" fill="none" xmlns="http://www.w3.org/2000/svg">
<rect y="0.403809" width="96.5844" height="96.5844" rx="16" fill="#40BFFF"/>
<path fill-rule="evenodd" clip-rule="evenodd" d="M68.1838 44.9018C70.2792 46.9973 70.2792 50.3947 68.1838 52.4902L52.0864 68.5876C49.9909 70.683 46.5935 70.683 44.498 68.5876L28.4006 52.4902C26.3051 50.3947 26.3051 46.9973 28.4006 44.9018L44.498 28.8044C46.5935 26.7089 49.9909 26.7089 52.0864 28.8044L68.1838 44.9018ZM48.2922 40.187L39.7832 48.696L48.2922 57.205L56.8012 48.696L48.2922 40.187Z" fill="white"/>
<path d="M128.159 36.5951H112.679V61.8671H128.159V56.9351H118.835V51.3911H127.079V46.6391H118.835V41.5271H128.159V36.5951ZM131.796 51.7871H147.636V46.6751H131.796V51.7871ZM151.995 49.1951C151.995 56.7551 157.251 62.0471 164.703 62.0471C170.715 62.0471 175.251 58.6991 176.691 53.2271H169.923C168.879 55.3871 166.971 56.4671 164.631 56.4671C160.851 56.4671 158.259 53.6591 158.259 49.1951C158.259 44.7311 160.851 41.9231 164.631 41.9231C166.971 41.9231 168.879 43.0031 169.923 45.1631H176.691C175.251 39.6911 170.715 36.3071 164.703 36.3071C157.251 36.3071 151.995 41.6351 151.995 49.1951ZM200.117 51.8231C200.117 45.4511 195.581 41.4911 189.677 41.4911C183.809 41.4911 179.237 45.4511 179.237 51.8231C179.237 58.1951 183.701 62.1551 189.605 62.1551C195.509 62.1551 200.117 58.1951 200.117 51.8231ZM185.501 51.8231C185.501 48.4031 187.445 46.8191 189.677 46.8191C191.837 46.8191 193.853 48.4031 193.853 51.8231C193.853 55.2071 191.801 56.8271 189.605 56.8271C187.373 56.8271 185.501 55.2071 185.501 51.8231ZM231.066 61.8671H237.186V50.1311C237.186 44.7311 233.982 41.5631 229.014 41.5631C226.098 41.5631 223.578 43.1831 222.246 45.3071C220.878 42.8951 218.43 41.5631 215.406 41.5631C212.778 41.5631 210.726 42.6791 209.538 44.2991V41.7791H203.382V61.8671H209.538V50.9591C209.538 48.3311 211.05 46.8911 213.39 46.8911C215.73 46.8911 217.242 48.3311 217.242 50.9591V61.8671H223.362V50.9591C223.362 48.3311 224.874 46.8911 227.214 46.8911C229.554 46.8911 231.066 48.3311 231.066 50.9591V61.8671ZM269.176 61.8671H275.296V50.1311C275.296 44.7311 272.092 41.5631 267.124 41.5631C264.208 41.5631 261.688 43.1831 260.356 45.3071C258.988 42.8951 256.54 41.5631 253.516 41.5631C250.888 41.5631 248.836 42.6791 247.648 44.2991V41.7791H241.492V61.8671H247.648V50.9591C247.648 48.3311 249.16 46.8911 251.5 46.8911C253.84 46.8911 255.352 48.3311 255.352 50.9591V61.8671H261.472V50.9591C261.472 48.3311 262.984 46.8911 265.324 46.8911C267.664 46.8911 269.176 48.3311 269.176 50.9591V61.8671Z" fill="#22262A"/>
</svg>
